<svg width="640" height="480" xmlns="http://www.w3.org/2000/svg" xmlns:svg="http://www.w3.org/2000/svg" xmlns:xlink="http://www.w3.org/1999/xlink">
 <!-- Created with SVG-edit - https://github.com/SVG-Edit/svgedit-->
 <g class="layer">
  <title>Layer 1</title>
  <polygon fill="#ffff00" id="svg_3"/>
  <polygon fill="#ffff00" id="svg_4"/>
  <polygon fill="#007fff" id="svg_7"/>
  <image height="0" id="svg_15" width="0" x="452.0732" xlink:href="images/logo.png" y="92.56096"/>
  <path d="m286.5,39.5c1.08334,-1.02083 1.78262,-1.1414 2.64417,-1.443c0.71005,-0.24857 1.54089,-0.60545 2.02917,-0.77833c1.12122,-0.39698 2.49167,-0.78519 3.27567,-0.9785c0.83466,-0.2058 1.71011,-0.39819 2.60699,-0.5895c0.90179,-0.19237 1.79486,-0.37383 2.66101,-0.5535c0.82446,-0.17103 2.28418,-0.48555 2.88965,-0.6355c0.52777,-0.1307 0.97946,-0.27325 2.03336,-0.575c1.02304,-0.29291 1.8118,-0.4086 2.63464,-0.436c1.05817,-0.03524 1.77695,0.03447 2.67801,-0.06783c0.97656,-0.11087 1.79431,-0.37777 2.39401,-0.5535c1.32068,-0.38699 2.03522,-0.59644 2.77866,-0.77866c0.74728,-0.18317 1.48663,-0.35406 2.55283,-0.48933c0.96158,-0.122 1.83539,-0.0526 2.67883,-0.34267c0.88559,-0.30457 1.64282,-0.76825 2.543,-0.77867c0.89993,-0.01041 1.80002,0 2.70001,0c0.89999,0 1.65823,-0.03954 2.55267,0.0045c0.86603,0.04264 1.66577,0.50839 2.54733,0.9115c0.86444,0.39528 1.53366,0.81424 2.45715,1.03133c0.73471,0.17271 1.75604,0.31221 2.36368,0.59433c0.67908,0.3153 1.67606,0.9231 2.45831,1.47916c0.52084,0.37023 1.37692,1.18067 1.89151,1.78983c0.54733,0.64793 1.29599,1.356 1.96667,1.872l0.77466,0.532l0.40884,0.2645l0.82565,0.511" fill="none" id="svg_20" stroke-width="5"/>
  <polygon fill="none" id="svg_5"/>
  <polygon fill="none" id="svg_6"/>
  <polygon fill="none" id="svg_8"/>
  <polygon fill="none" id="svg_9"/>
  <polygon fill="none" id="svg_10"/>
  <polygon fill="none" id="svg_11"/>
  <polygon fill="none" id="svg_12"/>
  <polygon fill="none" id="svg_13"/>
  <polygon fill="none" id="svg_16"/>
  <polygon fill="none" id="svg_17"/>
  <polygon fill="none" id="svg_18" points="324.5,298.5 324.5,298.5 324.5,298.5 324.5,298.5 324.5,298.5 324.5,298.5 324.5,298.5 324.5,298.5 324.5,298.5 324.5,298.5 324.5,298.5 324.5,298.5 " stroke-width="5"/>
  <polygon fill="none" id="svg_19"/>
  <polygon fill="none" id="svg_21" points="122.50000000000001,-68.5 155.88620233021248,27.547834719502987 257.55002531391176,29.619586798757467 176.5200101255647,91.05216528049701 205.96550582553118,188.38041320124253 122.5,130.3 39.03449417446883,188.38041320124253 68.47998987443529,91.05216528049702 -12.550025313911817,29.61958679875749 89.11379766978752,27.547834719502994 122.49999999999997,-68.5 155.88620233021246,27.54783471950298 " stroke-width="0"/>
  <polygon fill="none" id="svg_22" points="96.5,33.80854375393197 115.47169918697686,88.3876962384274 173.24213527216827,89.56496871910248 127.19685410886731,124.47401251235901 143.92924796744217,179.78075940393154 96.5,146.77658249842722 49.070752032557856,179.78075940393154 65.80314589113269,124.47401251235901 19.75786472783173,89.5649687191025 77.52830081302314,88.3876962384274 96.49999999999999,33.80854375393197 115.47169918697685,88.38769623842738 " stroke-width="0"/>
  <image height="0" id="svg_26" width="0" x="462.5" xlink:href="images/logo.png" y="350.5"/>
  <image height="0" id="svg_27" width="0" x="462.5" xlink:href="images/logo.png" y="350.5"/>
  <image height="0" id="svg_28" width="0" x="462.5" xlink:href="images/logo.png" y="350.5"/>
  <image height="0" id="svg_29" width="0" x="443.5" xlink:href="images/logo.png" y="348.5"/>
  <polygon fill="none" id="svg_33" points="81.5,-43.355432615976 101.45070874742737,14.040205179454883 162.20231213246828,15.278229256625217 113.78092485298731,51.988708297349916 131.3767718685684,110.14948705136278 81.5,75.4421730463904 31.623228131431603,110.14948705136278 49.21907514701269,51.988708297349916 0.7976878675317067,15.278229256625227 61.54929125257263,14.040205179454887 81.49999999999999,-43.355432615976 101.45070874742736,14.04020517945488 " stroke-width="0"/>
  <polygon fill="none" id="svg_34" points="105.5,86.80614132123411 124.23714993186364,140.7105255926252 181.29336360514537,141.87324332094596 135.81734544205815,176.35070267162163 152.3428748296591,230.973686018437 105.5,198.37754347150636 58.6571251703409,230.973686018437 75.18265455794185,176.35070267162163 29.706636394854613,141.87324332094596 86.76285006813634,140.7105255926252 105.49999999999999,86.80614132123411 124.23714993186364,140.7105255926252 " stroke-width="0"/>
  <polygon fill="none" id="svg_35" points="71.5,-14.904591948660354 96.98744817128237,58.41953713810087 174.59889356909056,60.00113881958236 112.73955742763623,106.89954447216707 135.21862042820592,181.20115715474782 71.5,136.86183677946414 7.7813795717940835,181.20115715474782 30.26044257236377,106.89954447216707 -31.598893569090578,60.001138819582366 46.01255182871762,58.41953713810087 71.49999999999999,-14.904591948660354 96.98744817128237,58.419537138100864 " stroke-width="0"/>
  <polygon fill="none" id="svg_36" points="309.5,295.5 309.5,295.5 309.5,295.5 309.5,295.5 309.5,295.5 309.5,295.5 309.5,295.5 309.5,295.5 309.5,295.5 309.5,295.5 309.5,295.5 309.5,295.5 " stroke-width="0"/>
  <path d="m89.5,120.5c225,-1 209,-161 225,-1c16,160 -184,162 -184.5,161.5c-0.5,-0.5 124.5,-198.5 71,-90c-53.5,108.5 101.5,2.5 101,2c-0.5,-0.5 -63.5,-87.5 -64,-88" fill="#003f7f" id="svg_1" stroke="#000000" stroke-dasharray="null" stroke-linecap="null" stroke-linejoin="null" stroke-width="5"/>
  <path d="m239.5,103.5c-32,42 28,13 27.5,12.5c-0.5,-0.5 -23.5,33.5 -24,33c-0.5,-0.5 34.5,-8.5 34,-9c-0.5,-0.5 -12.5,28.5 -13,28c-0.5,-0.5 28.5,-8.5 28,-9c-0.5,-0.5 -13.5,27.5 -14,27c-0.5,-0.5 29.5,-6.5 29,-7" fill="#FF0000" id="svg_2" stroke="#000000" stroke-dasharray="null" stroke-linecap="null" stroke-linejoin="null" stroke-width="5"/>
  <path d="m199.5,196.5c45,33 46,33 45.5,32.5c-0.5,-0.5 -4.5,-33.5 -5,-34c-0.5,-0.5 -18.5,16.5 -19,16" fill="#FF0000" id="svg_14" stroke="#000000" stroke-dasharray="null" stroke-linecap="null" stroke-linejoin="null" stroke-width="5"/>
  <path d="m510.5,51.5c-1.75717,-0.05717 -2.64072,-0.3826 -3.34732,-0.64734c-0.89105,-0.33385 -1.98602,-0.35266 -2.66702,-0.35266c-0.80698,0 -1.98569,0.00559 -2.58832,-0.00134c-0.93915,-0.01079 -1.61426,-0.03205 -2.73068,-0.16533c-0.83432,-0.0996 -1.69629,-0.25695 -2.54398,-0.408c-0.7843,-0.13975 -1.9801,-0.37233 -2.716,-0.41467c-0.88928,-0.05117 -1.79413,0.03362 -2.64951,-0.36333c-0.91217,-0.42331 -1.55716,-0.64667 -2.45718,-0.64734c-0.89999,-0.00067 -1.79999,0 -2.69998,0c-0.89999,0 -1.80002,0 -2.70001,0c-0.89999,0 -1.70016,-0.01799 -2.60001,0c-0.90054,0.018 -1.61035,0.61803 -2.5,0.91467c-0.85764,0.28595 -1.77347,0.29401 -2.39999,0.66c-0.86737,0.50669 -1.53192,1.05236 -2.03598,1.57467c-0.75467,0.78201 -1.55511,0.78417 -2.34317,1.35067c-0.64481,0.46352 -1.02493,1.21043 -1.46417,2.043c-0.39975,0.75773 -0.82733,1.29782 -1.33002,1.85967c-0.83289,0.93092 -1.52612,1.49442 -2.20581,2.0765c-0.3335,0.28561 -1.03534,0.77207 -1.96484,1.83416c-0.53485,0.61115 -1.02139,1.54834 -1.556,2.16584c-0.56512,0.65274 -1.23087,1.19169 -1.79999,1.82533c-0.7421,0.82623 -1.13339,1.51385 -1.34283,2.10001c-0.3468,0.97057 -0.35492,1.93832 -0.35718,2.83833c-0.00238,0.95716 0,1.85733 0,2.64249c0,0.94 0,1.63067 0,2.704c0,0.91067 0.09546,1.85521 -0.284,2.61066c-0.43558,0.86721 -0.71533,1.60001 -0.716,2.436c-0.00067,0.848 0,1.71133 0,2.728c0,0.83733 -0.05264,1.80558 0.02084,2.65684c0.08514,0.98629 0.37961,1.78719 0.68365,2.322c0.53519,0.94142 1.12784,1.52119 1.59549,2.31433c0.43054,0.73019 0.77859,1.55405 1.20001,2.322c0.47617,0.86769 0.99475,1.50514 1.70001,2.22083c0.59558,0.60438 1.25122,1.17268 1.79999,1.96667c0.44333,0.64145 0.80026,1.43453 1.20001,2.23334c0.40027,0.79986 0.86688,1.81806 1.19998,2.37866c0.54742,0.92134 1.38229,1.15108 2,1.668c0.71878,0.60149 0.97714,1.41118 1.48535,2.15467c0.56265,0.82314 1.1116,1.38079 1.63065,1.91333c0.83246,0.85411 1.07022,1.79794 1.70569,2.36401c0.51968,0.46293 1.75348,0.36912 2.44498,1.12133c0.49066,0.53374 0.57651,1.50859 0.98001,2.21067c0.47098,0.81951 1.1716,1.58543 1.70065,2.13216c0.62292,0.64375 1.18982,1.30358 1.95718,1.95267c0.54688,0.46259 1.56088,0.53063 2.52884,0.87116c0.71213,0.25053 1.47443,0.95942 2.20831,1.33334c0.63385,0.32294 1.64203,0.70081 2.45834,1c0.54715,0.20054 1.58521,0.58518 2.47916,1c0.62439,0.28973 1.60629,0.8307 2.22086,1.064c0.9801,0.37206 1.81647,0.35681 2.79999,0.60266c0.81891,0.2047 1.39255,0.55319 2.39999,1.03201c0.79434,0.37753 1.79654,0.7094 2.39999,0.76533c0.79736,0.07391 1.98938,0.02817 2.71469,0.036c0.96466,0.01042 1.72498,0.49422 2.65198,0.83334c0.64047,0.23429 1.43466,0.16599 2.43335,0.16666c0.79999,0.00053 1.80133,0 2.63599,0c1.18515,0 1.97867,0 2.75418,0c1.04181,0 1.81519,0 2.77783,0c0.73199,0 1.46399,0 2.57068,0c0.98267,0 1.836,0 2.77734,0c0.76794,0 1.71997,0.00172 2.48529,0c0.99866,-0.00225 1.81488,0.00507 2.79871,-0.284c0.81665,-0.23995 1.59735,-0.56498 2.39996,-0.69067c0.79773,-0.12492 1.78748,-0.41459 2.60004,-0.67266c0.98804,-0.3138 1.84314,-0.33701 2.76666,-0.51933c0.78912,-0.15579 1.59833,-0.38631 2.5,-0.83334c0.7171,-0.35553 1.37091,-0.84192 2.38531,-1.19867c0.61554,-0.21648 1.58551,-0.46563 2.448,-0.63467c0.97473,-0.19104 1.84192,-0.30559 2.75067,-0.60266c0.75183,-0.24577 1.60345,-0.66926 2.24933,-1.064c0.82922,-0.50678 1.51154,-0.78496 2.24933,-1.1c1.11761,-0.47723 1.85632,-0.91737 2.54614,-1.34734c0.71008,-0.4426 1.05402,-1.35983 1.70453,-2.05267c0.4942,-0.52634 1.08667,-1.33064 1.5625,-2.0625c0.30042,-0.46206 0.92957,-1.27783 1.49084,-1.90683c0.62457,-0.6999 1.30975,-1.41315 1.64581,-1.7825c0.97662,-1.07331 1.53986,-1.75778 2.03949,-2.42284c0.48425,-0.64458 0.94141,-1.3112 1.42804,-1.992c0.51324,-0.71799 1.05103,-1.44581 1.57196,-2.172c0.49493,-0.68993 1.14514,-1.60249 1.57867,-2.37866c0.33795,-0.60502 0.66467,-1.65682 0.68268,-2.604c0.01288,-0.67854 -0.00061,-1.6575 0,-2.48849c0.00067,-0.9595 -0.02496,-1.71605 0.08533,-2.50751c0.14075,-1.00979 0.51678,-1.93714 0.63068,-2.452c0.26276,-1.18761 0.258,-1.89172 0.27332,-2.616c0.03064,-1.44772 0.01068,-2.12933 0.01068,-2.77867c0,-0.9315 0,-2.136 0,-2.736c0,-0.9 0,-2.1 0,-2.69866c0,-0.8805 0,-1.716 0,-2.71734c0,-0.90933 0.01233,-1.85083 -0.00452,-2.64117c-0.01819,-0.85389 -0.14404,-2.04671 -0.28082,-2.64283c-0.20807,-0.90673 -0.41504,-1.50138 -0.81464,-2.69984c-0.29694,-0.89053 -0.48047,-1.47167 -0.90002,-2.5335c-0.28241,-0.71479 -0.72766,-1.54295 -0.91467,-2.56533c-0.13837,-0.75642 -0.01282,-1.73515 -0.19965,-2.46833c-0.23596,-0.92582 -0.58893,-1.49866 -1.07104,-2.493c-0.32751,-0.67551 -0.78528,-1.60125 -1.18933,-2.37867c-0.37073,-0.71333 -0.93536,-1.68996 -1.28247,-2.2095c-0.53613,-0.80241 -0.89191,-1.3382 -1.74152,-2.0825c-0.72412,-0.63437 -1.46631,-1.11157 -1.97601,-1.80533c-0.54431,-0.74084 -1.11005,-1.56091 -1.60449,-2.14317c-0.45337,-0.53389 -0.79486,-1.63266 -1.38251,-2.31633c-0.63104,-0.7342 -1.73376,-0.47361 -2.46899,-0.9885c-0.69373,-0.48579 -1.35779,-1.01899 -1.92645,-1.4205c-0.87653,-0.61884 -1.56055,-1.04999 -2.49469,-1.23833c-0.70551,-0.14225 -1.75348,-0.05717 -2.4975,-0.05717c-1.10767,0 -1.94165,0 -2.77148,0c-0.96454,0 -1.68988,0 -2.67902,0c-0.77936,0 -1.77869,0 -2.80017,0c-0.75714,0 -1.65717,0 -2.40448,0c-0.99554,0 -1.79553,0 -2.79553,0c-0.79999,0 -1.79999,0 -2.59998,0c-0.79999,0 -1.8045,0 -2.65717,0c-0.96417,0 -1.76819,0 -2.59021,0c-1.03094,0 -1.91095,0 -2.93127,0c-0.77405,0 -1.67401,0 -2.53735,0c-0.9632,0 -1.88403,0 -2.784,0c-0.90002,0 -1.79999,0 -2.70001,0c-0.79999,0 -1.76425,0.01048 -1.99866,0.80133c-0.23923,0.80709 -0.6535,1.53518 -1.28799,2.024c-0.69971,0.53906 -1.53717,1.19781 -2.17169,1.633c-0.79953,0.54835 -1.52365,0.97711 -1.54166,1.84167c-0.01874,0.89981 -0.00015,1.79984 -0.28534,2.616l-0.81448,0.3055l-0.61484,0.57983l-0.27466,0.79866" fill="none" id="svg_24" stroke="#ffaa56" stroke-dasharray="null" stroke-linecap="null" stroke-linejoin="null" stroke-width="5"/>
  <path d="m479.5,70.5c1.2215,-0.87883 1.99115,-1.34007 2.5,-2c0.58984,-0.76495 1.48013,-0.53323 2.21466,-1.08533c0.61572,-0.46281 0.3541,-1.66762 1.172,-1.99866c0.75247,-0.30457 1.60532,-0.73795 2.47736,-0.88c0.92447,-0.15059 1.836,-0.036 2.73615,-0.036c0.78519,0 1.73584,0.00172 2.50116,0c1.00317,-0.00225 1.86346,-0.01733 2.81985,-0.22134c0.80127,-0.17091 1.55258,-0.50084 2.60815,-0.69333c0.76004,-0.1386 1.67068,-0.08533 2.57068,-0.08533c0.89999,0 1.81067,0 2.72131,0c0.85333,0 1.79333,0 2.67868,0c0.79999,0 1.7265,-0.18375 2.60001,0.036c0.86282,0.21706 1.62247,0.80936 2.56665,1.13066c0.67752,0.23057 1.44357,0.64101 2.07169,1.486c0.47821,0.64331 0.47156,1.7951 1.12335,2.29467c0.66223,0.50755 1.79022,0.39487 2.39545,1.15283c0.44836,0.56151 0.63037,1.53873 0.8902,2.24717c0.3667,0.9997 0.35718,1.94817 0.77802,2.62733l0.55383,0.54617" fill="none" id="svg_25" stroke="#000000" stroke-dasharray="null" stroke-linecap="null" stroke-linejoin="null" stroke-width="5"/>
  <path d="m527.5,71.5c0.56799,-2.05334 0.86438,-2.68075 1.14935,-3.36c0.5437,-1.29591 0.59381,-2.16039 0.8988,-2.91666c0.31238,-0.77466 0.93597,-1.33408 0.95184,-2.22334c0.01611,-0.90011 0.54004,-1.75332 1.18536,-2.064c0.89539,-0.43107 1.76843,-0.67813 2.51465,-1.08334c0.76111,-0.41328 1.74457,-0.25721 2.5,-0.63667c0.86719,-0.43559 1.60016,-0.69659 2.5,-0.716c0.86456,-0.01865 1.34393,-0.85424 2.10132,-0.99866c0.88275,-0.16833 1.79865,-0.00134 2.69867,-0.00134c0.90002,0 1.79999,0 2.70001,0c0.89996,0 1.79999,-0.00378 2.55713,0c1.06824,0.00533 1.92096,-0.16391 2.70117,0.52083c0.68854,0.60428 0.94128,1.33533 1.7417,1.76317c0.85583,0.45746 1.60248,0.63113 2.29999,1.25767c0.73181,0.65736 1.07104,1.42503 1.33331,2.29166c0.25415,0.83968 0.36694,1.56746 0.88269,2.25067c0.46454,0.61535 0.284,1.616 0.284,2.516l0,0.9l0,0.9" fill="none" id="svg_30" stroke="#000000" stroke-dasharray="null" stroke-linecap="null" stroke-linejoin="null" stroke-width="5"/>
  <path d="m497.5,72.5c-1,-1 -1.79999,-1 -2.70001,-1c-0.89999,0 -2.01273,-0.11849 -2.28931,0.61066c-0.31543,0.83158 0.1705,2.02888 -0.53152,2.3685c-0.86349,0.41772 -1.42981,0.57881 -1.76315,1.50484c-0.25381,0.70505 -0.67206,1.62859 -0.71466,2.4c-0.05191,0.9399 -0.00134,1.94933 -0.00134,2.70533c0,0.91067 0,1.81067 0,2.71067c0,0.89999 0,1.8 0,2.7c0,0.8 0.22577,1.54323 0.87866,2.22134c0.5575,0.57903 1.32135,0.77866 2.22134,0.77866c0.89999,0 1.69998,0 2.60001,0c0.89999,0 1.79999,0 2.69998,0c0.89999,0 1.80862,0.12408 2.69983,-0.00017c0.80191,-0.11181 1.20105,-1.05066 1.54752,-1.69983c0.45334,-0.84937 0.35266,-1.82084 0.35266,-2.62134c0,-0.85333 0,-1.79333 0,-2.77866c0,-0.9 0.01874,-1.7002 0,-2.6c-0.01801,-0.86457 -0.76294,-1.36265 -1.05267,-2.06167c-0.35999,-0.8685 -0.72833,-1.55334 -0.91132,-2.60233c-0.16022,-0.91852 -0.46133,-1.61067 -1.03601,-2.15684l-0.35718,-0.77467" fill="none" id="svg_31" stroke="#000000" stroke-dasharray="null" stroke-linecap="null" stroke-linejoin="null" stroke-width="5"/>
  <path d="m546.5,62.5c-1,0 -1.75769,-0.02747 -2.66168,0.0045c-0.80121,0.02834 -1.76233,0.20607 -2.55298,0.42083c-0.77844,0.21144 -1.8313,0.42614 -2.66803,0.65866c-0.96594,0.26842 -1.60931,0.74531 -2.5965,0.89516c-0.90039,0.13668 -1.51038,0.54149 -1.52081,1.42084c-0.01068,0.89994 0,1.8 0,2.7c0,0.9 0,1.7 0,2.6c0,0.9 -0.00226,1.8 0,2.7c0.00226,0.89551 0.53845,1.47625 1,2.12083c0.49664,0.69357 1.1217,1.24802 2,1.47916c0.86798,0.22843 0.60345,1.29929 1.35718,1.88567c0.67133,0.52225 1.7428,0.11433 2.64282,0.11433c0.79999,0 1.42896,0.37071 2.2215,0.8785c0.7467,0.47842 1.7785,0.1215 2.57849,0.1215c0.90002,0 2.01172,0.00939 2.1955,-0.7045c0.22321,-0.86724 0.00452,-1.7955 0.00452,-2.6955c0,-0.9 0,-1.8 0,-2.7c0,-0.9 0,-1.7 0,-2.65717c0,-0.8955 0,-1.75883 0,-2.722c0,-0.82084 0,-1.72083 0,-2.62083c0,-0.9 -0.08533,-1.7 -0.61066,-2.464l-0.77869,-0.41067l-0.61066,-0.52533l-0.64734,-0.55267" fill="none" id="svg_32" stroke="#000000" stroke-dasharray="null" stroke-linecap="null" stroke-linejoin="null" stroke-width="5"/>
  <path d="m522.5,81.5c-1,0 -1.83441,-0.19595 -2.70001,0.05717c-0.87762,0.25665 -1.75775,0.72087 -2.27466,1.37883c-0.50922,0.64815 -0.94031,1.55139 -1.02399,2.36401c-0.09222,0.89526 -0.00134,1.8 -0.00134,2.7c0,0.91067 0.00043,1.82133 0,2.5c-0.00067,1.11467 -0.211,1.97217 -0.57465,2.6c-0.44598,0.76987 -0.24298,2.04208 -0.94617,2.37917c-0.78369,0.37567 -1.42828,0.60582 -1.92218,1.3425c-0.37756,0.56314 -0.98669,1.1233 -1.75717,2.09984c-0.41571,0.52689 -0.81,1.10747 -1.25699,1.683c-0.94186,1.21272 -1.48611,1.79114 -2.022,2.35384c-0.50641,0.53175 -1.23843,1.1618 -1.83817,1.86967c-0.61664,0.72785 -0.22299,1.3719 0.53867,1.05067c1.00397,-0.42343 1.58328,-0.79208 2.23581,-1.07867c0.9559,-0.41982 1.77744,-0.70406 2.64734,-1c0.8941,-0.30418 1.79565,-0.57558 2.62354,-0.9c0.95001,-0.37228 1.51331,-0.96556 2.37195,-1.2785c0.85327,-0.31098 1.70001,-0.1215 2.60004,-0.1215c0.89996,0 1.83472,0.0529 2.59998,-0.35267c0.84589,-0.4483 1.7002,-0.62934 2.5,-0.64733c0.8006,-0.01801 1.51038,-0.61812 2.40002,-0.91467c0.8576,-0.28587 1.80042,-0.05997 2.59998,-0.08533c0.90137,-0.02859 1.62256,-0.68554 2.5,-0.94283c0.86548,-0.25378 1.75085,-0.358 2.40002,-0.7045c0.84937,-0.45332 1.79999,-0.35267 2.70001,-0.35267c0.89996,0 1.79999,0 2.69995,0c0.90002,0 1.84381,0.41721 2.54285,-0.05717c0.68256,-0.4632 0.47693,-1.78033 -0.16364,-2.422c-0.64496,-0.64607 -1.64722,-0.68408 -2.3045,-0.94617c-1.01007,-0.40276 -1.77399,-0.45599 -2.6955,-0.5955c-0.98724,-0.14947 -1.6593,-0.53931 -2.59253,-0.89516c-0.76996,-0.29359 -1.00317,-1.29977 -1.59119,-1.72683c-0.72095,-0.52357 -1.77234,-0.6587 -2.47015,-0.93184c-0.93243,-0.36499 -1.73389,-0.44952 -2.65063,-0.86133c-0.71277,-0.32016 -1.52228,-0.78766 -2.05334,-1.66383c-0.44104,-0.72758 -1.27478,-0.7188 -2.12134,-1.06683c-0.67108,-0.27589 -1.70447,-0.70103 -1.98932,-1.444c-0.3111,-0.81148 -0.58533,-1.41467 -1.00616,-2.09383l-0.06171,-0.93833l-0.65881,-0.44117" fill="none" id="svg_37" stroke="#000000" stroke-dasharray="null" stroke-linecap="null" stroke-linejoin="null" stroke-width="5"/>
  <path d="m501.5,112.5c1,0 1.81525,-0.12247 2.75717,0.05717c0.93048,0.17746 1.63071,0.65788 2.44266,0.82133c0.95145,0.19154 1.91483,0.1215 2.80017,0.1215c0.79999,0 1.63599,0 2.65265,0c0.6947,0 1.71136,0 2.64734,0c0.90002,0 1.79999,0 2.70001,0c0.79999,0 1.70001,0 2.59998,0c0.90002,0 1.80005,0 2.70001,0c0.90002,0 1.81488,0.08828 2.58533,-0.08533c0.79266,-0.17863 1.60602,-0.74852 2.59387,-0.89383c0.81232,-0.11948 1.80194,0.11649 2.46814,-0.3735c0.6842,-0.50323 1.4834,-0.58487 2.37402,-0.86867c0.69897,-0.22273 1.66736,-0.61748 2.43134,-0.83133c0.91907,-0.25725 1.46436,-0.54532 2.44696,-1.04733c0.76373,-0.39021 1.28796,-1.23875 1.96704,-1.73334c0.68695,-0.50031 1.76367,0.22633 2.54797,-0.252c0.80371,-0.49018 1.42963,-0.94543 1.92816,-1.61916c0.51373,-0.69427 0.42249,-1.73293 0.93182,-2.32083c0.56189,-0.64862 1.22668,-0.97334 2.12537,-0.97467l0.89996,0" fill="none" id="svg_38" stroke="#000000" stroke-dasharray="null" stroke-linecap="null" stroke-linejoin="null" stroke-width="5"/>
  <path d="m481.5,116.5c-0.91599,0.284 -1.3559,0.97141 -2.3045,1c-0.86176,0.02598 -1.81659,-0.11529 -2.52884,0.5c-0.52652,0.45483 -0.68268,1.2972 -1.26666,2.35717c-0.35684,0.64771 -0.99734,1.46574 -1.39999,2.14283c-0.49673,0.83529 -0.96875,1.51096 -1.70001,2.19867c-0.57648,0.54213 -1.44614,0.85192 -1.85266,1.50583c-0.49301,0.79301 -1.27869,1.3811 -1.79401,1.7275c-0.62732,0.4217 -1.58414,1.3247 -2.11499,1.94401c-0.29007,0.33839 -0.88608,1.09117 -1.52499,1.91333c-0.68112,0.87646 -1.0322,1.33351 -1.76151,2.25433c-0.36533,0.46126 -0.7276,0.91742 -1.44199,1.78932c-0.33893,0.41365 -1.27008,1.49973 -1.79102,2.10001c-0.66583,0.76726 -1.36816,1.72525 -1.63348,2.24834c-0.38824,0.7654 -0.87036,1.83482 -1.38535,2.29784c-0.68088,0.61215 -1.05734,1.23509 -1.70001,2.13683c-0.46985,0.65924 -1.05731,1.34265 -1.36398,2.09467c-0.39194,0.96112 -0.37399,1.77022 -0.43616,2.76784c-0.0513,0.82297 -0.61246,1.60364 -0.97452,2.42149c-0.3479,0.7859 -0.84747,1.4722 -1.32532,2.25267c-0.41858,0.68365 -0.99994,1.39627 -1.41467,2.146c-0.47107,0.85158 -0.6026,1.70857 -0.99518,2.55934c-0.29889,0.64774 -0.58856,1.31639 -1.26865,2.3775c-0.46527,0.72595 -1.21512,1.29141 -1.66434,1.96449c-0.49118,0.73596 -0.96313,1.47394 -1.41968,1.94583c-0.67984,0.70271 -1.12479,1.51068 -1.62149,2.54617c-0.28046,0.58467 -0.54398,1.21623 -0.81601,1.8705c-0.27734,0.66705 -0.54474,1.34138 -0.81601,2.00549c-0.75528,1.84912 -0.99423,2.394 -1.448,3.39867c-0.21307,0.47179 -0.63379,1.37146 -0.83466,1.81334c-0.60812,1.33786 -0.99765,2.26332 -1.19067,2.724c-0.37628,0.89799 -0.71747,1.74471 -1.18915,2.83167c-0.26001,0.59923 -0.62952,1.36058 -1.02151,2.33101c-0.31509,0.78006 -0.58075,1.61548 -1,2.66666c-0.2869,0.71936 -0.61996,1.38377 -1,2.33334c-0.31201,0.77959 -0.61459,1.59641 -0.83334,2.66666c-0.14285,0.69901 -0.32089,1.51833 -0.15598,2.53067c0.14169,0.86977 0.83301,1.49567 1.28482,2.28867c0.38449,0.6748 0.61084,1.61748 0.87384,2.40201c0.34195,1.01999 0.68875,1.63354 1.01599,2.30533c0.32877,0.67493 0.93939,1.86584 1.29382,2.61917c0.32892,0.69914 0.72192,1.70444 0.92084,2.24615c0.30164,0.82141 0.70969,1.84883 1.07916,2.733c0.36395,0.87099 0.5155,1.66696 0.52084,2.52567c0.00537,0.86333 0,1.76334 0,2.68268c0,0.83333 0,1.812 0,2.586c0,0.9045 0,1.65182 0,2.64867c0,0.83466 0,2.01984 0,2.81332c0,0.77551 0,1.81467 0,2.58267c0,0.90266 0.00763,1.77005 -0.16666,2.70267c-0.16388,0.87691 -0.3526,1.5629 -0.53784,2.31351c-0.29297,1.18712 -0.48941,1.98848 -0.70618,2.7865c-0.21786,0.80205 -0.45032,1.60912 -0.91064,2.7995c-0.15457,0.39973 -0.48615,1.17738 -0.85333,1.8925c-0.62848,1.22398 -1.17462,1.77008 -1.5387,2.504c-0.42087,0.84836 -0.28665,1.804 -0.28665,2.70399c0,0.94267 0,1.64133 0,2.4855c0,1.1265 0,1.53532 0,2.36099c0,1.489 0,2.082 0,3.04001c0,1.01216 0,1.7775 0,2.85632c0,0.85735 0,1.6425 0,2.58252c0,1.008 -0.35873,1.84872 0.02084,2.65381c0.33255,0.70538 1.47916,0.52084 2.37915,0.52084c0.89999,0 1.89099,0.09366 1.89099,0c0,-0.89099 -1.8522,-0.31378 -2.68033,0.01068c-0.76633,0.30026 -0.83301,1.53189 -1.03598,2.25064c-0.22314,0.79019 -0.48453,1.81378 -0.53867,2.492c-0.08597,1.07718 -0.9747,2.77469 -0.03601,2.77469c0.62802,0 0,-1.52802 0,-2.328c0,-0.90002 -0.07739,-1.86761 0.436,-2.60001c0.55374,-0.78995 1.21536,-1.39777 2.064,-1.57916c0.88034,-0.18817 1.82263,-0.22003 2.69867,-0.0195c0.80991,0.18539 0.91867,1.18805 1.32217,1.99866c0.42834,0.86057 0.61343,1.82166 1.422,2.29099c0.04944,0.02869 0.05716,-0.89099 0.05716,-1.79099c0,-0.91068 0,-1.82132 0,-2.67465c0,-0.94 -0.0372,-1.8262 0,-2.62534c0.04272,-0.91766 1.06943,-1.4104 1.70001,-1.08569c0.75723,0.38992 1.02237,1.34277 1.39981,2.30685c0.30792,0.78653 0.62003,1.55185 0.81485,2.60815c0.14014,0.75977 0.22406,1.82153 0.96799,1.92401c0.79877,0.11005 1.80872,-0.21106 2.5965,-0.47418c0.7608,-0.25412 1.85477,-0.67441 2.23285,-1.3645c0.46759,-0.85352 -0.09222,-2.1076 0.40231,-2.75299c0.48712,-0.63574 1.76306,-0.16489 1.88568,0.73834c0.12106,0.89182 -0.01874,1.70016 0,2.60001c0.01801,0.86453 0.81924,1.24594 0.99866,0.49866c0.21417,-0.89209 1.15027,-1.5358 1.83469,-1.03201c0.6528,0.4805 1.13806,0.47296 1.16666,-0.48816c0.02078,-0.69904 0,-1.6785 0,-2.46783c0,-1.04401 0,-1.90616 0,-2.77316c0,-0.9375 0,-1.8 0,-2.45833c0,-1.01251 0,-1.93651 0,-2.7285c0,-0.75601 0,-1.89334 0,-2.556c0,-1.04401 0,-1.72667 0,-2.93201c0,-0.84599 0,-1.49666 0,-2.76266c0,-0.52817 0,-1.7205 0,-2.36267c0,-0.65816 0,-1.32133 0,-2.61867c0,-1.18533 0,-2.19066 0,-2.62833c0,-1.101 0,-2.22366 0,-2.92867c0,-0.8 0,-1.82567 0,-2.77068c0,-0.66167 0,-1.69633 0,-2.44032c0,-1.10783 0,-1.86534 0,-2.90334c0,-0.69467 0,-1.71133 0,-2.65184c0,-0.86217 0,-1.6955 0,-2.674c0,-0.82016 0,-1.6575 0,-2.67416c0,-0.69467 0,-1.71133 0,-2.64734c0,-0.89999 0,-1.80032 0,-2.51433c0,-0.95633 0,-1.72734 0,-2.58833c0,-1.19467 0,-1.776 0,-2.58301c0,-1.2045 0,-1.89699 0,-2.85033c0,-0.76534 -0.00006,-1.76851 0,-2.62117c0.00009,-0.96449 -0.01572,-1.79123 0.05716,-2.7045c0.08041,-1.00775 0.22375,-1.72293 0.36816,-2.46367c0.14621,-0.74994 0.42203,-2.20647 0.48935,-2.88666c0.06232,-0.62953 0.08466,-1.716 0.08533,-2.67818c0.00067,-0.9765 -0.04272,-1.67995 0.17065,-2.58183c0.21002,-0.88766 0.53632,-1.53262 0.82935,-2.228c0.43445,-1.03098 0.81082,-1.94701 0.92801,-2.728c0.12939,-0.86244 0.07199,-1.86751 0.07199,-2.61484c0,-1.02116 -0.00024,-1.95717 0,-2.85716c0.00024,-0.90033 0.12332,-1.64937 0.66449,-2.34283c0.59341,-0.76042 1.15573,-1.25545 1.7395,-1.77451c0.87839,-0.78104 1.49167,-1.21948 2.05435,-1.66183c0.77753,-0.61125 1.5459,-1.44035 2.02081,-1.97916c0.65271,-0.74054 1.76328,-0.63991 2.35019,-1.32701c0.6048,-0.70805 0.6561,-1.74417 1.25116,-2.01917c0.80582,-0.37239 1.49756,-0.57188 2.66199,-1.017c0.86087,-0.32907 1.30383,-0.50009 2.17084,-0.88916c0.83969,-0.37682 1.93445,-0.97087 2.51068,-1.38034c0.72433,-0.51472 1.55618,-0.85683 2.21432,-1.45717c0.64655,-0.58978 0.90897,-1.52449 1.86166,-1.95183c0.53757,-0.24112 1.53778,-0.49712 2.25635,-0.64284c1.0719,-0.21739 1.76135,-0.25938 2.74365,-0.37799c0.65396,-0.07896 1.67798,-0.28117 2.74365,-0.68451c0.72299,-0.27364 1.37122,-0.63477 2.25635,-0.96133c0.92111,-0.33986 1.79999,-0.33333 2.70001,-0.33333c0.90015,0 1.68533,0 2.64667,0c0.84,0 1.836,0 2.63248,0c0.7515,0 1.84885,0 2.72086,0c0.89999,0 1.80084,-0.03719 2.59998,0c0.91766,0.04271 1.20276,0.87601 1.19986,1.76416c-0.00302,0.92256 0.03345,1.60464 -0.1665,2.90251c-0.08731,0.56677 -0.45544,1.46062 -0.74933,2.448c-0.20093,0.67506 -0.69199,1.48799 -1.384,2.18533c-0.49808,0.50192 -1.37466,1.11508 -1.64285,2c-0.26233,0.8656 -0.05716,1.67067 -0.05716,2.71883c0,0.54367 0,1.46918 0,2.5025c0,0.73134 0,1.47867 0,2.59467c0,1.06267 0,1.73134 0,2.70934c0,0.65866 0,1.69566 0,2.77867c0,0.69867 0,1.896 0,2.5515c0,0.87399 0,1.8445 0,2.7525c0,0.5215 0,1.6545 0,2.248c0,0.59949 0,2.34399 0,2.87917c0,0.98433 -0.00006,1.86066 0,2.63699c0.00009,1.285 -0.02539,2.06978 0.05716,2.776c0.11456,0.98012 0.33655,1.78246 0.64734,2.54201c0.43735,1.06886 0.94598,1.67355 1.2955,2.50983c0.35214,0.84254 0.49289,1.52296 0.70001,2.19917c0.38675,1.26263 0.71619,2.06589 0.89999,2.62349c0.43903,1.33177 0.50754,1.7616 0.69998,2.70151c0.1041,0.50835 0.30032,1.58246 0.40002,2.13666c0.30087,1.67233 0.39496,2.21884 0.60449,3.2865c0.10361,0.52785 0.32553,1.57941 0.45267,2.10535c0.39124,1.61852 0.56299,2.16895 0.72549,2.73132c0.32996,1.14194 0.50232,1.71442 0.65601,2.29066c0.30356,1.13832 0.54932,2.25566 0.69199,3.34267c0.07001,0.53323 0.14975,1.60342 0.18402,2.14401c0.03476,0.54842 0.14798,2.27237 0.207,2.88165c0.06085,0.62808 0.22086,1.9296 0.32001,2.59868c0.10083,0.68028 0.2132,1.36858 0.34497,2.06099c0.26642,1.40001 0.42804,2.09824 0.76154,3.47934c0.16327,0.67612 0.33197,1.33443 0.49048,1.974c0.15247,0.61511 0.55219,2.27341 0.69067,3.20399c0.11963,0.80383 0.15765,1.53316 0.16797,2.22c0.01563,1.04156 0.00562,2.16696 0.0387,2.96667c0.01715,0.41518 0.11621,1.722 0.25067,2.644c0.14447,0.99039 0.25201,1.51408 0.35999,2.064c0.23352,1.18929 0.51941,2.51215 0.67468,3.2305c0.16205,0.74963 0.33075,1.52112 0.50397,2.30551c0.17413,0.7886 0.34882,1.57211 0.52203,2.34149c0.16809,0.74661 0.48584,2.13452 0.76599,3.33984c0.12494,0.53766 0.36035,1.49985 0.52496,2.34833c0.21521,1.10928 0.29004,1.79346 0.32568,2.44366c0.05103,0.93063 0.03601,2.13599 0.03601,2.73599c0,0.89999 0,2.10001 0,2.69733c0,0.86102 0,2.06934 0,2.86102c0,0.84164 0.14355,1.79004 -0.2215,2.64215c-0.28412,0.66318 -0.88507,1.66248 -1.08752,2.28452c-0.24005,0.73761 -0.49945,1.60193 -0.66162,2.07498c-0.55219,1.61063 -0.79492,2.19031 -1.03467,2.789c-0.24292,0.60666 -0.74268,1.80359 -0.98938,2.37866c-0.23602,0.55023 -0.85284,1.96951 -1.1955,2.69101c-0.41296,0.8696 -0.68768,1.36288 -1.29382,2.36801c-0.33865,0.56161 -0.9017,1.45731 -1.34933,2.47998c-0.30966,0.70746 -0.54007,1.46973 -0.79199,2.24402c-0.25739,0.79108 -0.69067,1.99106 -0.85867,2.38531c-0.3309,0.77652 -0.6507,1.51865 -1.34933,2.70401c-0.38351,0.65067 -0.88715,1.28098 -1.08264,2.26935c-0.14673,0.74182 -0.10132,1.56372 -0.36801,2.54398c-0.23337,0.8577 -0.44897,1.91272 -1,2.60266c-0.53421,0.66891 -0.96936,1.42123 -0.71335,2.28268c0.23074,0.77643 1.21866,0.79599 2.19736,0.80133c0.79999,0.00436 1.79999,0 2.59998,0c0.80002,0 1.80002,0 2.60001,0c1.00003,0 1.80002,0 2.80002,0c0.79999,0 1.79999,0 2.61066,0c0.87469,0 1.87201,0 2.66852,0c0.75146,0 1.87012,0 2.85413,0c0.67651,0 1.45203,0 2.5,0c0.93066,0 1.76556,0.01535 2.56934,-0.00134c0.86981,-0.01807 1.93219,-0.15729 2.56934,-0.284c0.71252,-0.14172 1.48486,-0.32748 2.31604,-0.51599c1.33215,-0.30212 2.25586,-0.49747 2.716,-0.59866c0.89911,-0.19772 1.75098,-0.36691 2.83179,-0.70001c0.88623,-0.27313 1.6579,-0.62054 2.4975,-0.89999c0.97333,-0.32397 1.70758,-0.50317 2.47571,-0.70001c1.18976,-0.3049 1.98865,-0.4938 2.75897,-0.69998c0.72559,-0.19418 1.39917,-0.34747 2.56952,-0.89551c0.6781,-0.31754 1.62866,-0.64484 2.36249,-0.68365c1.16522,-0.06165 1.97919,-0.02084 2.82135,-0.02084c0.85333,0 1.79333,0 2.67865,0c0.79999,0 1.68115,0.00269 2.54303,-0.22168c0.73828,-0.1922 1.58179,-0.5069 2.45697,-0.94498c0.90405,-0.45251 1.49756,-0.75983 2.14398,-1.34933c0.83551,-0.76196 0.85602,-1.68668 0.85602,-2.45468c0,-1.04367 0,-1.85065 0,-2.43201c0,-1.19733 0.00006,-2.09732 0,-2.69733c-0.00012,-1.19983 0.03314,-2.09283 -0.05719,-2.94284c-0.11084,-1.04324 -0.38977,-1.74939 -0.64734,-2.52414c-0.30872,-0.92871 -0.50146,-1.68628 -0.6955,-2.53033c-0.2063,-0.89725 -0.29382,-1.36038 -0.59998,-2.73602c-0.19604,-0.88089 -0.39508,-1.72125 -0.59998,-2.51999c-0.19531,-0.76123 -0.49255,-1.8273 -0.70001,-2.48502c-0.28967,-0.9183 -0.68787,-2.00027 -1,-2.7045c-0.28882,-0.65155 -0.81152,-1.65244 -1.11066,-2.29984c-0.36029,-0.77975 -0.76117,-1.82211 -1.07336,-2.69598c-0.17145,-0.47998 -0.51746,-1.5025 -0.69067,-2.03201c-0.17419,-0.5325 -0.66199,-2.095 -0.94135,-3.06c-0.13287,-0.45905 -0.37476,-1.35123 -0.63666,-2.2175c-0.39996,-1.32281 -0.56805,-1.77332 -0.89551,-2.7045c-0.16626,-0.47272 -0.51361,-1.41513 -0.78247,-2.36331c-0.25842,-0.91132 -0.40875,-1.79904 -0.51868,-2.65869c-0.10864,-0.84973 -0.19073,-1.71503 -0.38397,-2.59198c-0.2052,-0.931 -0.52051,-1.91112 -0.66669,-2.43752c-0.15265,-0.54959 -0.46521,-1.73303 -0.66669,-3.0625c-0.10864,-0.71683 -0.17017,-1.47427 -0.22797,-2.26199c-0.05975,-0.81499 -0.10382,-1.65475 -0.15601,-2.51401c-0.05316,-0.87541 -0.09125,-1.76526 -0.28265,-3.55733c-0.09625,-0.901 -0.23004,-1.79672 -0.37201,-2.68649c-0.14075,-0.88225 -0.2951,-1.75093 -0.44403,-2.60551c-0.14575,-0.83641 -0.30402,-1.64893 -0.51733,-3.20799c-0.1004,-0.73369 -0.16864,-1.43953 -0.21899,-2.11501c-0.04803,-0.64459 -0.07623,-1.25987 -0.09296,-1.845c-0.01581,-0.5549 -0.02136,-2.03999 -0.02136,-2.888c0,-0.77599 0,-1.528 0,-2.30399c0,-1.31218 0,-1.80135 0,-2.83467c0,-1.07333 0,-1.6125 0,-3.18001c0,-0.49083 0,-1.4325 0,-2.35416c0,-0.46584 0,-1.43251 0,-2.47917c0,-1.16133 0,-1.78951 0,-2.45067c0,-0.69516 0,-1.42534 0,-2.1915c0,-0.80316 0,-2.52451 0,-3.4425c0,-0.946 0,-1.90799 0,-2.87399c0,-0.95801 0,-1.896 0,-2.802c0,-0.862 0,-2.40601 0,-3.06734c0,-0.58932 0,-1.11467 0,-2.00533c0,-0.73067 0,-1.96651 0,-2.56216c0,-0.86852 0,-1.93784 0,-2.87918c0,-0.67799 0,-1.64667 0,-2.45065c0,-0.82201 0,-1.85333 0,-2.77467c0,-0.68401 0,-1.68266 0,-2.47917c0,-1.1875 -0.00488,-1.97377 -0.61066,-2.58217c-0.67212,-0.67506 -1.01123,-1.18668 -1.38934,-2.10533c-0.3186,-0.77408 -0.53723,-1.60162 -1,-2.5c-0.42377,-0.82266 -0.83636,-1.6804 -1.22131,-2.43333c-0.3902,-0.7632 -0.77332,-1.53595 -0.77869,-2.38533c-0.0058,-0.91914 0,-1.91466 0,-2.71466c0,-0.99983 0,-1.77917 0,-2.7785c0,-0.717 0.00543,-1.62152 0,-2.5215c-0.00537,-0.88937 -0.67517,-1.51285 -0.94733,-2.20534c-0.36066,-0.91771 -1.00702,-1.20619 -1.6167,-1.90533c-0.58154,-0.66692 -0.43597,-1.68933 -0.43597,-2.58932c0,-0.90001 0,-1.8 0,-2.60001c0,-0.89999 0.01617,-1.91603 0.71869,-2.26134c0.99902,-0.49107 1.64862,-0.65411 2.34381,-0.93866c0.74658,-0.30559 1.93195,-0.69693 2.73486,-0.82933c0.77704,-0.12813 1.53046,-0.15788 2.23199,-0.168c1.19855,-0.01727 2.11328,-0.00267 3.08667,-0.00267c0.76794,0 1.70929,0 2.71729,0c0.86218,0 1.68811,-0.03253 2.64935,0.00133c0.8089,0.02849 1.45654,0.55423 1.80133,1.48267c0.26086,0.70247 0.58289,1.64442 0.79999,2.40001c0.2793,0.97202 0.62354,1.50615 0.83203,2.51466c0.19312,0.93425 0.46094,1.85835 0.73065,2.37067c0.5517,1.04791 0.84137,1.85318 1.00598,2.3075c0.35608,0.98256 0.5296,1.50209 0.86334,2.55917c0.32471,1.02837 0.60394,1.9919 0.84802,2.892c0.23029,0.84933 0.33276,1.26268 0.63599,2.472c0.20087,0.80112 0.40265,1.61003 0.59998,2.436c0.20276,0.84869 0.50079,2.18587 0.60138,2.65334c0.21057,0.97838 0.31726,1.49446 0.55579,2.58665c0.12701,0.5816 0.40863,1.82422 0.56421,2.48834c0.16174,0.69054 0.50507,2.13274 0.67865,2.87733c0.17578,0.75407 0.35162,1.51373 0.51599,2.27699c0.32581,1.51286 0.46454,2.25916 0.60004,2.99333c0.13318,0.7215 0.25732,1.43091 0.38397,2.1255c0.12402,0.68008 0.36432,1.99515 0.66669,3.22917c0.14526,0.59288 0.48389,1.72415 0.65863,2.27199c0.17261,0.54117 0.53021,1.60701 0.69067,2.14401c0.48755,1.63158 0.60345,2.2019 0.73132,2.77449c0.25958,1.16214 0.37347,1.7545 0.50537,2.34734c0.40027,1.79861 0.56641,2.39644 0.73132,2.99817c0.16638,0.60696 0.51843,1.83833 0.69067,2.46933c0.17517,0.64166 0.35974,1.29451 0.65863,2.66133c0.1546,0.70697 0.40967,2.16231 0.52002,2.89601c0.10956,0.72832 0.20374,1.44756 0.28497,2.151c0.07861,0.68059 0.20807,1.95212 0.27637,3.07967c0.06097,1.00601 0.07111,1.4774 0.08081,2.37917c0.01428,1.32742 0.00348,2.24617 0.00903,2.71799c0.01141,0.96375 0.04425,1.94789 0.08081,2.44417c0.11066,1.50128 0.1933,2.00368 0.35065,3.03067c0.08136,0.53105 0.27026,1.63922 0.36536,2.224c0.20227,1.24342 0.3056,1.90721 0.49414,3.3065c0.09753,0.72368 0.18671,1.45799 0.26855,2.19749c0.08179,0.73885 0.1626,1.4724 0.26929,2.90668c0.05127,0.68974 0.11713,2.01457 0.15204,2.65067c0.03406,0.62024 0.04498,1.22861 0.18396,2.39467c0.13416,1.12529 0.3927,2.20425 0.53601,2.73083c0.2829,1.0396 0.4657,1.54068 0.72668,2.55583c0.25604,0.99608 0.4071,1.99899 0.45367,2.49683c0.09192,0.98206 0.10803,1.94731 0.11163,2.41917c0.01044,1.36346 0.00269,2.21915 0.00269,3.02283c0,0.74365 0,2.01935 0,2.77985c0,1.116 0,1.90799 0,2.76666c0,0.86331 0,1.85867 0,1.71332c0,-0.83331 -0.09222,-1.86423 0.05719,-2.54465c0.23273,-1.05972 1.03033,-1.58109 1.50684,-2.25269c0.51489,-0.72565 1.12933,-1.3255 1.35199,-0.54532c0.18988,0.66553 0.08563,1.48508 0.43665,2.68365c0.23962,0.81821 0.46643,1.75668 0.86865,2.56168c0.32892,0.65826 0.71112,1.66888 1.48322,1.89551c0.85919,0.2522 1.90479,0.17181 2.59094,-0.35269c0.75018,-0.57349 0.70453,-1.64282 0.70453,-2.44281c0,-0.90002 -0.38605,-1.89957 0.02081,-2.67917c0.35938,-0.68863 1.23669,0.75717 1.85767,0.25766c0.69104,-0.55588 0.08435,-1.77936 0.12152,-2.57849c0.04272,-0.91766 1.00049,-1.22708 1.79999,-1.20001c0.8443,0.02859 0.73456,0.98093 1.28534,1.71466c0.4624,0.61603 1.59167,0.17929 1.99866,-0.51599c0.48334,-0.82565 0.96375,-1.66327 1.91602,-2.03201c0.6543,-0.25336 1.38257,0.50363 1.71466,1.35068c0.36407,0.92871 0.28534,1.86133 0.28534,1.75333c-0.00012,-1.03516 -0.00024,-1.9791 -0.03601,-2.70267c-0.03821,-0.77264 -0.17084,-1.97046 -0.32117,-2.76349c-0.14911,-0.78656 -0.33691,-1.5502 -0.64282,-2.63783c-0.19214,-0.6832 -0.49957,-1.64079 -0.64282,-2.26218c-0.27576,-1.19606 -0.23834,-1.81953 -0.45453,-2.7045c-0.30035,-1.2296 -0.75385,-1.80548 -1.18933,-2.43199c-0.47101,-0.67763 -0.99518,-1.40082 -1.38,-2.26801c-0.41797,-0.94183 -0.5351,-1.49562 -0.672,-2.07201c-0.3017,-1.27017 -0.4126,-1.98395 -0.54401,-2.74399c-0.29095,-1.68282 -0.43854,-2.61186 -0.60132,-3.58667c-0.16852,-1.00887 -0.34088,-2.03874 -0.51599,-3.07651c-0.17426,-1.0329 -0.34607,-2.04788 -0.51599,-3.03149c-0.31494,-1.82307 -0.46179,-2.63928 -0.59869,-3.39467c-0.1275,-0.70363 -0.24951,-1.36397 -0.3645,-1.99049c-0.11035,-0.60147 -0.21814,-1.18669 -0.31946,-1.7655c-0.20508,-1.17136 -0.3028,-1.78076 -0.40002,-2.40401c-0.09839,-0.63075 -0.19244,-1.26373 -0.28052,-1.89299c-0.08661,-0.61876 -0.24609,-1.8019 -0.35413,-2.875c-0.0932,-0.9258 -0.11896,-1.73756 -0.22803,-2.46001c-0.20898,-1.38432 -0.49835,-2.09259 -0.78931,-2.82133c-0.29041,-0.72736 -0.66644,-1.39105 -0.9787,-2.61333c-0.17847,-0.69868 -0.17065,-1.7505 -0.17065,-2.57066c0,-0.90134 0,-1.80135 0,-2.70134c0,-0.81351 0,-1.556 0,-2.55733c0,-0.66135 0,-1.41068 0,-2.23201c0,-1.33183 0,-2.25883 0,-3.18983c0,-0.45949 0,-1.3515 0,-2.5775c0,-0.72 0,-1.64999 0,-2.80032c0,-0.834 0,-1.68468 0,-2.68617c0,-0.7395 0,-1.623 0,-2.6235c0,-0.71466 0,-1.43733 0,-2.46632c0,-1.10251 0,-1.935 0,-2.78835c0,-0.91199 0,-1.85066 0,-2.39999c0,-1.17867 0,-2.06967 0,-2.90666c0,-0.93867 0,-1.85066 0,-2.68266c0,-0.91068 0.04559,-1.76518 -0.00134,-2.70668c-0.04266,-0.85506 -0.25543,-1.66046 -0.51947,-2.38266c-0.43304,-1.18457 -0.89771,-1.82555 -1.27917,-2.38266c-0.63135,-0.922 -1.00482,-1.6301 -1.49548,-2.36467c-0.4234,-0.6339 -0.63153,-1.597 -0.78851,-2.354c-0.21021,-1.01381 -0.62299,-1.79747 -1.01587,-2.5985c-0.38171,-0.77818 -0.62427,-1.66893 -0.95282,-2.49567c-0.33997,-0.85542 -0.82782,-1.61073 -0.94867,-2.5045c-0.10944,-0.80954 -0.62231,-1.5112 -1.01947,-2.32083c-0.39856,-0.81244 -0.9953,-1.48375 -1.49652,-1.99518c-0.71881,-0.73344 -1.3689,-1.2072 -1.96185,-1.98399c-0.56384,-0.7386 -0.95306,-1.61566 -1.54163,-2c-0.79877,-0.52164 -1.51538,-1.04893 -1.94855,-1.556c-0.83167,-0.97356 -1.30151,-1.64221 -1.57233,-1.98567c-0.565,-0.71651 -1.45313,-1.79622 -2.05963,-2.47566c-0.3006,-0.33679 -0.92151,-1.00165 -1.55585,-1.6925c-0.32922,-0.35855 -1.36658,-1.53064 -1.72552,-1.95816c-0.7373,-0.87822 -1.09875,-1.33023 -1.45599,-1.78134c-0.69629,-0.87923 -1.33057,-1.71545 -1.88934,-2.47599c-0.49158,-0.66903 -0.96973,-1.64571 -1.75049,-2.21017c-0.72601,-0.52487 -1.8136,-0.39919 -2.31696,-1.07433c-0.43628,-0.5852 -0.48663,-1.75402 -0.98987,-2.48884c-0.54004,-0.7886 -1.51709,-0.71649 -2.21466,-1.34299c-0.73193,-0.65737 -0.95984,-1.4838 -1.5,-2.29167c-0.44702,-0.66851 -0.94733,-1.46217 -1.42535,-2.14133l-0.55383,-0.54617" fill="none" id="svg_39" stroke="#ff7f00" stroke-dasharray="null" stroke-linecap="null" stroke-linejoin="null" stroke-width="5"/>
  <path d="m506.5,313.5c-0.96399,0.91467 -0.98605,1.63773 -1.00116,3.09c-0.00504,0.48337 -0.02185,1.04727 -0.07352,1.70999c-0.06113,0.78421 -0.16711,1.7081 -0.3255,2.79001c-0.18521,1.26514 -0.758,4.41171 -1.14981,6.32367c-0.43396,2.11761 -0.93185,4.39639 -1.47,6.80099c-0.55835,2.49481 -1.1438,5.03802 -1.74002,7.59302c-0.59048,2.53033 -1.73764,7.35956 -2.27567,9.591c-0.50742,2.10452 -0.99289,4.09308 -1.46698,5.97598c-0.45148,1.79306 -0.89508,3.50568 -1.341,5.14801c-0.43164,1.58963 -1.31708,4.64581 -1.7775,6.13416c-0.45566,1.47299 -0.92557,2.9248 -1.39352,4.3605c-0.46304,1.42062 -0.92709,2.82434 -1.37549,4.21649c-0.44357,1.3772 -1.28268,4.09775 -1.66666,5.44284c-0.37726,1.32162 -0.72562,2.61633 -1.06052,3.87c-0.32138,1.203 -0.62097,2.34787 -0.9165,3.42001c-0.27411,0.99445 -0.78644,2.70471 -1.04449,3.39648c-0.22375,0.59982 -0.44714,1.10583 -0.67499,1.5195c-0.19424,0.35266 -0.39023,0.63641 -0.58502,0.85352c-0.16693,0.18604 -0.49316,0.43344 -0.64047,0.52182c-0.13687,0.08212 -0.27533,0.15091 -0.40652,0.23401c-0.13803,0.08743 -0.28162,0.1969 -0.4245,0.34201c-0.16629,0.16888 -0.52881,0.66266 -0.73364,0.99597c-0.2374,0.38626 -0.4873,0.83844 -0.7605,1.35001c-0.30347,0.56827 -0.62662,1.19937 -0.9765,1.89001c-0.37958,0.7493 -1.22159,2.42896 -1.68335,3.3595c-0.48901,0.98541 -0.99777,2.02322 -1.5015,3.1185c-0.52228,1.13565 -1.03732,2.31818 -1.5195,3.55051c-0.49289,1.2597 -1.36792,3.89621 -1.729,5.2645c-0.3631,1.37595 -0.66489,2.76566 -0.93149,4.14899c-0.26224,1.36081 -0.48135,2.69519 -0.6795,3.987c-0.18964,1.23624 -0.50607,3.50137 -0.65399,4.50766c-0.13626,0.927 -0.26764,1.78427 -0.40652,2.58002c-0.13046,0.74756 -0.26849,1.45502 -0.4245,2.13c-0.15216,0.65839 -0.51678,1.95218 -0.733,2.60434c-0.2197,0.6626 -0.46246,1.3244 -0.71848,1.98297c-0.25504,0.65613 -0.52115,1.2999 -0.7905,1.92902c-0.2627,0.61356 -0.78091,1.76727 -1.02634,2.30249c-0.23328,0.50879 -0.45825,0.99185 -0.66452,1.45651c-0.1973,0.4444 -0.38071,0.87369 -0.53848,1.29449c-0.15274,0.40735 -0.3934,1.21179 -0.47601,1.61301c-0.0813,0.39496 -0.13629,0.78659 -0.18149,1.16849c-0.0437,0.36914 -0.07437,0.72418 -0.1095,1.06052c-0.03296,0.31564 -0.10995,0.87366 -0.17368,1.10748c-0.05841,0.21426 -0.13766,0.40952 -0.2355,0.58801c-0.09854,0.17978 -0.22299,0.35376 -0.36151,0.534c-0.1506,0.19595 -0.51508,0.64154 -0.724,0.90601c-0.22714,0.28751 -0.466,0.59479 -0.71848,0.91199c-0.25851,0.3248 -0.5213,0.6503 -0.7905,0.966c-0.26288,0.30826 -0.77716,0.86261 -1.02652,1.09366c-0.23102,0.21405 -0.4584,0.39935 -0.67499,0.56702c-0.20355,0.15759 -0.4014,0.29947 -0.58502,0.44098c-0.17636,0.13593 -0.50006,0.4184 -0.63965,0.57751c-0.13782,0.1571 -0.25784,0.32315 -0.354,0.4935c-0.09094,0.1611 -0.16022,0.32135 -0.19199,0.47549c-0.02863,0.13882 0.01001,0.38864 0.09033,0.46683c0.09097,0.08853 0.25296,0.13803 0.45898,0.17102c0.26468,0.04239 0.60257,0.0542 1.017,0.06299c0.50027,0.01062 1.79102,0.009 2.59335,0.009c0.89633,0 1.87067,0 2.90698,0c1.08234,0 2.19467,0 3.32101,0c1.12433,0 3.30298,0 4.32831,0c0.97736,0 1.90869,0 2.79602,0c0.84534,0 1.65067,0 2.418,0c0.73132,0 2.09399,0 2.72968,0c0.60965,0 1.19733,0 1.767,0c0.55566,0 1.10132,0 1.64099,0c0.53766,0 1.62299,0 2.17767,0c0.56265,0 1.13132,0 1.70398,0c0.57468,0 1.14935,0 1.72202,0c0.56866,0 1.686,0 2.23065,0c0.53268,0 1.05133,0 1.55402,0c0.94934,0 1.392,0 2.90332,0c0.84601,0 1.49402,0.00009 2.53934,0c0.9465,-0.00009 2.02139,0.26636 2.51102,-0.41116c0.37387,-0.51736 0.11288,-1.41418 0.11432,-2.58884c0.00095,-0.75732 0.00003,-1.61865 0.00449,-2.56799c0.00479,-1.02133 0.01358,-2.09869 0.03152,-3.216c0.01831,-1.14139 0.03195,-2.29138 0.13065,-4.54935c0.04733,-1.08322 0.11502,-2.14359 0.21301,-3.1965c0.09921,-1.06586 0.2338,-2.15939 0.41101,-3.2955c0.18747,-1.20178 0.40945,-2.48468 1.04266,-5.34131c0.35809,-1.61542 0.7858,-3.33591 1.2435,-5.14951c0.47678,-1.88913 0.98389,-3.83014 1.50449,-5.80652c0.52505,-1.99329 1.05917,-3.98148 2.08533,-7.87732c0.49268,-1.87042 0.96405,-3.68799 1.42352,-5.457c0.44858,-1.72699 0.88699,-3.41852 1.32449,-5.07901c0.43146,-1.63751 0.85492,-3.25961 1.75201,-6.46399c0.44794,-1.60016 0.91132,-3.18805 1.38147,-4.755c0.46198,-1.5397 0.92584,-3.03833 1.3905,-4.48499c0.44647,-1.38995 0.87006,-2.71448 1.72803,-5.09335c0.38062,-1.05536 0.75665,-2.01709 1.11896,-2.89948c0.33679,-0.82016 0.66956,-1.58109 0.99304,-2.29651c0.30933,-0.68417 0.62268,-1.34082 1.22131,-2.63733c0.30151,-0.65308 0.59827,-1.311 0.88647,-1.96802c0.28381,-0.647 0.55426,-1.28064 0.80554,-1.896c0.23962,-0.58673 0.47009,-1.13766 0.80798,-2.13599c0.14325,-0.42316 0.25012,-0.80386 0.32849,-1.14301c0.06897,-0.29849 0.11383,-0.56476 0.13953,-0.80099c0.02277,-0.20926 0.0296,-0.39731 0.03198,-0.72269c0.00104,-0.14532 -0.00055,-0.28284 0.00897,-0.414c0.00928,-0.12759 0.02753,-0.25403 0.06305,-0.37799c0.03699,-0.12897 0.08533,-0.26675 0.26129,-0.54132c0.10236,-0.15973 0.23511,-0.32056 0.3855,-0.48602c0.1601,-0.17618 0.34021,-0.35126 0.53851,-0.52197c0.20538,-0.17682 0.42023,-0.35767 0.90936,-0.65869c0.24939,-0.1535 0.51398,-0.28436 0.78149,-0.405c0.26459,-0.11932 0.52985,-0.22327 0.79047,-0.315c0.25043,-0.08813 0.48944,-0.16968 0.92804,-0.28c0.19043,-0.04791 0.37274,-0.08548 0.55048,-0.069c0.18781,0.01743 0.3941,0.09872 0.61353,0.237c0.27002,0.17014 0.57794,0.42017 1.336,1.16534c0.49194,0.48358 1.02612,1.05829 1.60199,1.6965c0.61377,0.68024 1.23846,1.40176 1.854,2.15549c0.61584,0.75406 1.23407,1.48843 2.21063,2.98135c0.43744,0.66873 0.78815,1.32745 1.08905,1.965c0.29083,0.61621 0.53839,1.24237 0.78296,1.875c0.25153,0.6507 0.48779,1.34354 1.12799,2.82666c0.36029,0.83466 0.78632,1.71149 1.24353,2.634c0.47723,0.96295 0.98499,1.94971 1.50452,2.95801c0.52612,1.02103 1.06512,2.04004 2.08533,4.07465c0.49542,0.98798 0.96631,1.96228 1.41901,2.92352c0.44592,0.94681 0.87561,1.88766 1.29297,2.82449c0.41528,0.93219 0.82446,1.86554 1.62134,3.75198c0.40277,0.95346 0.8006,1.91656 1.1955,2.88602c0.39587,0.97186 0.78595,1.94644 1.16852,2.922c0.3811,0.97177 0.75861,1.93839 1.4693,3.85867c0.34912,0.94324 0.68195,1.87711 1.00952,2.79599c0.32172,0.90247 0.63452,1.78796 0.94647,2.65201c0.30444,0.84329 0.59491,1.66696 1.21069,3.21866c0.29285,0.73792 0.59485,1.44244 0.89099,2.11951c0.28528,0.65222 0.56787,1.27609 0.83704,1.8765c0.25818,0.57593 0.51556,1.12344 0.93866,2.17065c0.19684,0.48718 0.36566,0.95721 0.51447,1.40552c0.14026,0.42249 0.2597,0.82275 0.36151,1.19849c0.0943,0.34802 0.17615,0.66925 0.29065,1.22934c0.04803,0.23492 0.08344,0.4437 0.1095,0.62851c0.02301,0.16324 0.03802,0.30887 0.04651,0.43948c0.00769,0.11841 0.0097,0.228 0.01068,0.43201c0.00049,0.10049 -0.00134,0.20432 0.00897,0.31351c0.02356,0.25003 0.31421,1.19095 0.70538,2.0625c0.31915,0.71106 0.51233,1.08951 0.88831,1.91333c0.60602,1.32776 0.79285,1.79395 1.19733,2.71466c0.39563,0.90063 0.55438,1.35364 1.20001,2.496c0.37415,0.66199 1.00781,1.47327 1.40002,2.00082c0.6123,0.82352 1.20709,1.79623 1.55829,2.49918c0.34326,0.68695 0.75018,1.65649 0.93182,2.49466c0.16229,0.74881 0.27014,1.8399 0.39386,2.47467c0.20538,1.05365 0.39099,1.77811 0.54932,2.86401c0.09863,0.67636 0.15515,1.60397 0.16534,2.39465c0.01422,1.09991 0.00134,1.97202 0.00134,2.87201c0,0.89999 0,1.71432 0,2.668c0,0.73199 -0.4502,1.55963 0.02081,2.66949c0.29926,0.70517 1.52252,0.5625 2.27252,0.5625c0.59998,0 2.03998,0 2.87598,0c0.44055,0 1.3515,0 2.28253,0c0.46552,0 1.82666,0 2.69098,0c0.83636,0 1.65265,0 2.85718,0c0.79736,0 1.57867,0 2.328,0c1.33868,0 2.15314,0 3.00586,0c0.91345,0 1.83282,0 2.66614,0c0.97882,0 1.66174,0.0289 2.76666,-0.00266c0.71332,-0.02036 1.88971,-0.26398 2.11469,-1.00803c0.19696,-0.6514 0.06067,-1.14212 -0.04803,-3.15598c-0.04926,-0.91251 -0.1178,-1.9375 -0.19501,-3.0585c-0.08264,-1.20032 -0.17621,-2.46265 -0.28497,-3.7695c-0.11115,-1.33551 -0.21924,-2.68359 -0.52002,-5.33868c-0.14514,-1.28116 -0.31171,-2.52145 -0.49945,-3.72c-0.18195,-1.1615 -0.38434,-2.2825 -0.61652,-3.35999c-0.22461,-1.04257 -0.44458,-2.05396 -1.05066,-3.92001c-0.28857,-0.88846 -0.62848,-1.73441 -0.98102,-2.556c-0.34894,-0.81314 -0.72565,-1.61148 -1.10699,-2.41199c-0.38593,-0.81015 -0.79962,-1.62634 -1.57867,-3.36533c-0.40973,-0.91458 -0.80328,-1.86932 -1.20001,-2.84851c-0.40332,-0.99548 -0.79968,-2.0058 -1.20001,-3.0195c-0.39966,-1.01196 -0.78595,-2.02051 -1.59998,-3.96533c-0.39288,-0.93869 -0.79706,-1.8468 -1.19098,-2.73749c-0.38739,-0.87598 -0.77246,-1.7395 -1.13702,-2.60251c-0.36273,-0.8587 -0.73444,-1.71509 -1.33868,-3.49335c-0.30762,-0.90524 -0.57324,-1.84451 -0.828,-2.8125c-0.26282,-0.99869 -0.50873,-2.04086 -0.75598,-3.1275c-0.25824,-1.13501 -0.513,-2.32761 -1.08264,-4.89331c-0.30688,-1.3822 -0.63208,-2.81366 -0.96753,-4.27502c-0.33789,-1.47195 -0.67755,-2.9335 -1.01251,-4.36499c-0.32336,-1.38184 -0.63177,-2.6937 -1.18665,-5.02667c-0.23468,-0.98682 -0.44275,-1.85333 -0.62402,-2.60999c-0.15735,-0.65668 -0.2934,-1.22314 -0.40796,-1.70999c-0.09802,-0.41653 -0.18488,-0.77206 -0.30133,-1.34668c-0.04767,-0.23535 -0.08386,-0.44629 -0.1095,-0.63751c-0.0235,-0.17551 -0.03833,-0.34152 -0.04651,-0.5025c-0.00812,-0.16074 -0.01001,-0.32666 -0.01068,-0.69333c-0.00037,-0.21198 0,-0.45599 0,-0.74399c0,-0.34399 0,-0.75601 0,-1.24802c0,-0.58398 0.00012,-1.27197 0,-3.008c-0.00012,-1.06665 0,-2.25333 -0.00452,-3.53998c-0.00476,-1.36667 -0.01343,-2.79337 -0.03149,-4.26001c-0.01831,-1.48669 -0.03168,-2.97388 -0.13068,-5.86667c-0.04694,-1.37131 -0.11304,-2.68863 -0.20398,-3.957c-0.08807,-1.22769 -0.20026,-2.41953 -0.34802,-3.57901c-0.14514,-1.13861 -0.29675,-2.2648 -0.78131,-4.46399c-0.24323,-1.10382 -0.54395,-2.19473 -0.86249,-3.27301c-0.31488,-1.06577 -0.65271,-2.10388 -0.9975,-3.11099c-0.33374,-0.97485 -0.66833,-1.90585 -1.3067,-3.616c-0.28802,-0.7717 -0.56104,-1.48727 -0.81897,-2.1525c-0.24091,-0.62143 -0.47076,-1.20242 -0.69299,-1.7475c-0.21057,-0.51657 -0.41309,-1.00916 -0.82135,-1.93335c-0.19714,-0.4462 -0.39801,-0.88031 -0.59552,-1.30499c-0.19312,-0.41531 -0.38422,-0.81976 -0.56848,-1.215c-0.17938,-0.38477 -0.35736,-0.75708 -0.66931,-1.48001c-0.14819,-0.34344 -0.28229,-0.6778 -0.40503,-1.00049c-0.11713,-0.30801 -0.22217,-0.60294 -0.315,-0.88351c-0.08704,-0.26315 -0.16711,-0.50876 -0.27997,-0.94931c-0.04865,-0.18991 -0.08368,-0.36545 -0.11853,-0.52802c-0.03314,-0.15472 -0.06586,-0.30618 -0.1095,-0.45599c-0.04535,-0.15564 -0.09723,-0.32233 -0.27197,-0.68268c-0.10327,-0.21295 -0.23553,-0.43893 -0.37653,-0.68549c-0.151,-0.2641 -0.31317,-0.54245 -0.47552,-0.8385c-0.1687,-0.30762 -0.34814,-0.62338 -0.64795,-1.30933c-0.15338,-0.35098 -0.28467,-0.71445 -0.40503,-1.08151c-0.11963,-0.36499 -0.33618,-1.08594 -0.47498,-1.7825c-0.23779,-1.1933 -0.27625,-1.94836 -0.28668,-3.13599c-0.0069,-0.78598 0,-1.608 0,-2.66669l0,-0.70499l0,-0.80002l0,-1.02567" fill="none" id="svg_41" stroke="#ff7f00" stroke-dasharray="null" stroke-linecap="null" stroke-linejoin="null" stroke-width="5"/>
  <polygon fill="#7f0000" id="svg_43" opacity="0.2" points="528.5,180.8023223876953 555.467041015625,258.383056640625 637.583984375,260.0564880371094 572.1336059570312,309.67742919921875 595.9176025390625,388.2923583984375 528.5,341.37908935546875 461.0823974609375,388.2923583984375 484.8664245605469,309.67742919921875 419.4160461425781,260.0564880371094 501.532958984375,258.383056640625 528.5,180.8023223876953 555.467041015625,258.383056640625 " stroke="#ffaa56" stroke-width="0"/>
  <polygon fill="#7f0000" id="svg_45" opacity="0.3"/>
  <polygon fill="#7f0000" id="svg_46" opacity="0.3"/>
  <polygon fill="#7f0000" id="svg_47" opacity="0.3"/>
  <polygon fill="#7f0000" id="svg_48" opacity="0.3"/>
  <ellipse cx="142.5" cy="383.5" fill="#003f7f" id="svg_50" rx="110" ry="61" stroke="#000000" stroke-dasharray="null" stroke-linecap="null" stroke-linejoin="null" stroke-width="0"/>
 </g>
</svg>